<svg width="34" height="24" viewBox="0 0 34 24" fill="none" xmlns="http://www.w3.org/2000/svg">
<rect x="0.5" y="0.5" width="33" height="23" rx="3.5" fill="white"/>
<rect x="0.5" y="0.5" width="33" height="23" rx="3.5" stroke="#E5E7EB"/>
<!-- Binance diamond logo -->
<g transform="translate(10, 8)">
  <!-- Top diamond -->
  <path d="M7 0L8.5 1.5L7 3L5.5 1.5L7 0Z" fill="#F0B90B"/>
  <!-- Left diamond -->
  <path d="M2.5 4.5L4 3L5.5 4.5L4 6L2.5 4.5Z" fill="#F0B90B"/>
  <!-- Center diamond (larger) -->
  <path d="M7 4.5L8.5 3L10 4.5L8.5 6L7 4.5Z" fill="#F0B90B"/>
  <!-- Right diamond -->
  <path d="M11.5 4.5L13 3L14.5 4.5L13 6L11.5 4.5Z" fill="#F0B90B"/>
  <!-- Bottom diamond -->
  <path d="M7 9L8.5 7.5L10 9L8.5 10.5L7 9Z" fill="#F0B90B"/>
</g>
</svg>
