<svg width="34" height="24" viewBox="0 0 34 24" fill="none" xmlns="http://www.w3.org/2000/svg">
<rect x="0.5" y="0.5" width="33" height="23" rx="3.5" fill="white"/>
<rect x="0.5" y="0.5" width="33" height="23" rx="3.5" stroke="#F5F5F5"/>
<g clip-path="url(#clip0_binance)">
<path d="M11.5 12L13.2 10.3L14.9 12L16.6 10.3L14.9 8.6L13.2 10.3L11.5 12Z" fill="#F0B90B"/>
<path d="M9.8 13.7L11.5 12L9.8 10.3L8.1 12L9.8 13.7Z" fill="#F0B90B"/>
<path d="M13.2 15.4L14.9 13.7L16.6 15.4L18.3 13.7L16.6 12L14.9 13.7L13.2 15.4Z" fill="#F0B90B"/>
<path d="M19.5 12L21.2 10.3L22.9 12L24.6 10.3L22.9 8.6L21.2 10.3L19.5 12Z" fill="#F0B90B"/>
<path d="M17.8 13.7L19.5 12L17.8 10.3L16.1 12L17.8 13.7Z" fill="#F0B90B"/>
<path d="M21.2 15.4L22.9 13.7L24.6 15.4L26.3 13.7L24.6 12L22.9 13.7L21.2 15.4Z" fill="#F0B90B"/>
</g>
<defs>
<clipPath id="clip0_binance">
<rect width="18.2" height="10.8" fill="white" transform="translate(8.1 6.6)"/>
</clipPath>
</defs>
</svg>
