<svg width="34" height="24" viewBox="0 0 34 24" fill="none" xmlns="http://www.w3.org/2000/svg">
<rect x="0.5" y="0.5" width="33" height="23" rx="3.5" fill="white"/>
<rect x="0.5" y="0.5" width="33" height="23" rx="3.5" stroke="#E5E7EB"/>
<g transform="translate(9, 6)">
<path d="M8 6L9.5 4.5L11 6L12.5 4.5L11 3L9.5 4.5L8 6Z" fill="#F0B90B"/>
<path d="M6.5 7.5L8 6L6.5 4.5L5 6L6.5 7.5Z" fill="#F0B90B"/>
<path d="M9.5 9L11 7.5L12.5 9L14 7.5L12.5 6L11 7.5L9.5 9Z" fill="#F0B90B"/>
<path d="M2 6L3.5 4.5L5 6L6.5 4.5L5 3L3.5 4.5L2 6Z" fill="#F0B90B"/>
<path d="M0.5 7.5L2 6L0.5 4.5L-1 6L0.5 7.5Z" fill="#F0B90B"/>
<path d="M3.5 9L5 7.5L6.5 9L8 7.5L6.5 6L5 7.5L3.5 9Z" fill="#F0B90B"/>
</g>
</svg>
