<svg width="34" height="24" viewBox="0 0 34 24" fill="none" xmlns="http://www.w3.org/2000/svg">
<rect x="0.5" y="0.5" width="33" height="23" rx="3.5" fill="white"/>
<rect x="0.5" y="0.5" width="33" height="23" rx="3.5" stroke="#E5E7EB"/>
<rect x="6" y="7" width="22" height="10" rx="1.5" fill="#0070BA"/>
<path d="M12.5 10.5C12.5 10.2239 12.7239 10 13 10H15C15.8284 10 16.5 10.6716 16.5 11.5C16.5 12.3284 15.8284 13 15 13H13.5V14H12.5V10.5ZM13.5 11V12H15C15.2761 12 15.5 11.7761 15.5 11.5C15.5 11.2239 15.2761 11 15 11H13.5Z" fill="white"/>
<path d="M17 10.5C17 10.2239 17.2239 10 17.5 10H19.5C20.3284 10 21 10.6716 21 11.5C21 12.3284 20.3284 13 19.5 13H18V14H17V10.5ZM18 11V12H19.5C19.7761 12 20 11.7761 20 11.5C20 11.2239 19.7761 11 19.5 11H18Z" fill="white"/>
<rect x="21.5" y="13" width="4" height="2" rx="0.5" fill="#FFC439"/>
</svg>
